<svg xmlns="http://www.w3.org/2000/svg" width="500" height="500" viewBox="0 0 500 500">
<g>
<path d="M 232.66 274.99 C222.57,269.48 219.00,267.30 219.00,266.76 C219.00,266.36 222.26,264.39 226.25,262.38 C269.08,240.88 309.80,210.24 317.28,193.90 C323.23,180.88 323.57,173.16 318.62,163.66 C315.30,157.28 315.27,157.16 317.37,156.57 C341.75,149.74 363.64,145.31 384.50,142.98 C402.63,140.96 415.18,139.19 417.60,138.39 C417.35,138.67 415.59,139.10 413.30,139.42 C405.12,140.54 402.96,141.13 403.55,142.08 C403.86,142.59 403.81,143.00 403.44,143.00 C401.88,143.00 372.78,147.17 364.24,148.62 C352.68,150.58 320.97,158.63 319.66,159.94 C319.03,160.57 319.69,163.13 321.53,167.21 C328.93,183.57 321.70,201.46 300.47,219.31 C284.51,232.74 255.90,251.31 234.23,262.29 C227.49,265.71 224.06,268.00 224.24,268.96 C224.42,269.94 226.46,271.47 232.66,274.99 ZM 189.49 216.07 C188.36,216.32 184.64,218.70 177.32,223.77 C158.61,236.71 150.25,243.76 131.92,262.00 C110.86,282.95 97.72,298.48 83.07,319.70 C69.28,339.69 68.89,340.22 68.37,339.71 C68.14,339.47 68.40,338.09 68.95,336.64 C69.50,335.19 69.81,334.00 69.64,334.00 C69.48,334.00 67.83,336.11 65.98,338.68 C64.94,340.13 64.12,341.13 63.54,341.72 C65.10,339.91 67.74,336.23 71.42,330.69 C86.27,308.30 91.27,301.30 99.79,291.00 C125.33,260.09 149.69,237.61 178.71,218.17 C183.78,214.78 188.44,212.00 189.08,212.00 C189.89,212.00 190.12,212.48 189.49,216.07 ZM 268.01 164.59 C269.72,163.93 270.86,163.43 271.00,163.28 C271.27,162.97 267.00,162.99 261.50,163.31 C238.12,164.69 203.79,175.35 171.74,191.18 C150.46,201.69 145.65,204.62 137.31,212.17 C130.42,218.41 127.63,218.55 121.53,212.92 C121.19,212.60 120.86,212.29 120.55,211.98 C122.37,213.74 124.32,215.00 125.64,215.00 C126.91,215.00 130.59,212.70 134.06,209.75 C144.00,201.28 148.57,198.43 165.98,189.85 C205.28,170.49 241.53,160.00 269.12,160.00 C277.12,160.00 278.09,160.19 277.00,161.50 C276.32,162.32 275.17,163.00 274.45,163.00 C273.37,163.00 271.10,163.58 268.01,164.59 ZM 210.63 249.48 C203.57,252.64 200.99,253.51 201.00,252.75 C201.01,252.61 202.39,245.98 204.08,238.00 C206.07,228.64 207.35,219.20 207.71,211.35 L 208.26 199.19 L 225.88 190.68 C235.57,185.99 248.23,180.27 254.00,177.97 C266.40,173.01 288.65,165.27 291.50,164.93 C294.96,164.50 298.68,166.05 301.64,169.15 C301.70,169.21 301.75,169.26 301.80,169.32 C300.80,168.49 299.49,167.95 297.82,167.61 C294.34,166.92 276.48,172.57 257.00,180.52 C242.56,186.41 215.20,199.51 212.80,201.68 C211.37,202.97 211.00,204.87 210.98,210.90 C210.97,215.22 209.67,224.98 207.98,233.50 C206.35,241.75 205.01,249.25 205.00,250.17 C205.00,251.59 206.18,251.33 212.75,248.48 C214.05,247.91 215.70,247.16 217.52,246.30 C215.22,247.40 212.92,248.46 210.63,249.48 ZM 209.48 286.81 C206.69,285.29 204.41,284.02 203.75,283.60 C201.22,282.03 198.69,283.95 197.81,288.10 C195.20,300.50 192.72,321.31 192.53,332.45 C192.41,339.63 191.97,346.30 191.54,347.29 C190.47,349.74 185.78,352.00 181.75,352.00 C178.98,352.00 176.15,350.21 174.04,347.48 C174.12,347.57 174.21,347.66 174.30,347.75 C176.40,349.85 177.39,350.15 180.37,349.59 C182.34,349.22 185.24,347.83 186.82,346.49 L 189.71 344.07 L 190.32 326.78 C190.73,315.06 191.74,305.00 193.44,295.50 C194.83,287.80 195.97,280.95 195.98,280.28 C196.00,278.75 198.51,279.63 202.50,282.56 C203.65,283.41 206.42,285.08 209.48,286.81 ZM 353.96 377.72 C346.15,370.15 340.54,365.34 331.13,358.87 C340.39,365.23 345.97,369.97 353.45,377.17 C359.06,382.57 363.89,386.47 364.37,386.00 C366.24,384.19 364.10,375.03 360.55,369.23 C363.18,372.97 365.14,376.24 366.03,378.58 C367.43,382.26 367.26,388.01 365.75,387.97 C365.06,387.95 359.76,383.34 353.96,377.72 ZM 216.51 186.78 C230.81,179.52 246.10,172.69 257.90,168.28 C245.72,173.03 229.35,180.26 216.51,186.78 ZM 344.73 349.97 C339.17,344.09 333.45,338.66 329.36,335.60 C324.17,331.74 316.15,326.12 307.77,320.42 C315.12,325.39 322.26,330.37 328.87,335.16 C333.30,338.37 339.06,343.85 344.73,349.97 ZM 239.03 145.07 C251.54,142.64 262.61,141.81 273.50,142.35 C263.33,141.84 251.65,142.77 239.03,145.07 ZM 274.61 299.01 C262.53,291.78 254.97,287.33 249.36,284.13 C257.06,288.41 265.66,293.49 274.61,299.01 ZM 299.63 191.23 C303.11,186.69 304.44,182.73 304.47,177.90 C304.48,176.33 304.38,174.99 304.16,173.83 C305.30,178.08 304.50,183.48 301.75,188.17 C301.18,189.13 300.47,190.15 299.63,191.23 ZM 249.95 228.98 C260.80,222.45 271.48,215.36 280.03,209.02 C271.46,215.47 261.11,222.35 249.95,228.98 ZM 172.04 344.13 C171.53,342.97 171.13,341.74 170.90,340.47 C170.58,338.80 170.48,336.23 170.57,332.98 C170.54,337.87 171.03,341.49 172.04,344.13 ZM 132.96 186.27 C137.02,183.88 141.72,181.32 147.00,178.62 C151.51,176.31 155.77,174.20 159.90,172.23 C150.32,176.83 140.35,182.03 132.96,186.27 ZM 181.11 258.83 C184.01,242.57 187.27,225.83 188.83,219.46 C188.49,221.09 188.07,223.08 187.54,225.50 C185.74,233.86 183.30,246.53 181.11,258.83 ZM 415.44 137.89 C409.43,137.74 400.57,137.95 391.64,138.38 C401.72,137.87 411.27,137.63 415.44,137.89 ZM 185.85 161.07 C191.68,158.84 197.74,156.70 204.36,154.50 C206.78,153.70 209.15,152.94 211.46,152.22 C203.15,154.87 193.85,158.08 185.85,161.07 ZM 115.48 201.67 C115.54,200.98 115.69,200.31 115.94,199.66 C116.39,198.47 117.70,196.95 119.79,195.18 C117.07,197.59 115.74,199.57 115.48,201.67 Z" fill="rgba(0,0,0,1)"/>
<path d="M 353.45 377.17 C341.36,365.53 334.22,360.31 308.50,344.30 C304.10,341.56 296.67,336.92 292.00,333.98 C276.17,324.02 248.14,307.54 237.50,301.94 C233.65,299.91 228.48,297.13 226.00,295.76 C223.52,294.39 217.90,291.35 213.50,289.01 C209.10,286.68 204.15,283.77 202.50,282.56 C198.51,279.63 196.00,278.75 195.98,280.28 C195.97,280.95 194.83,287.80 193.44,295.50 C191.74,305.00 190.73,315.06 190.32,326.78 L 189.71 344.07 L 186.82 346.49 C185.24,347.83 182.34,349.22 180.37,349.59 C177.39,350.15 176.40,349.85 174.30,347.75 C169.58,343.03 169.36,331.43 173.49,305.50 C174.37,300.00 176.18,288.52 177.52,280.00 C180.08,263.71 184.63,239.00 187.54,225.50 C190.21,213.17 190.34,212.00 189.08,212.00 C188.44,212.00 183.78,214.78 178.71,218.17 C149.69,237.61 125.33,260.09 99.79,291.00 C91.27,301.30 86.27,308.30 71.42,330.69 C60.54,347.10 58.76,347.15 66.85,330.83 C79.41,305.52 116.18,260.54 144.03,236.42 C155.86,226.19 174.68,211.82 182.95,206.72 C186.33,204.64 189.24,202.39 189.43,201.72 C189.62,201.05 190.29,198.59 190.92,196.26 C192.28,191.28 195.15,189.99 199.69,192.34 C202.53,193.81 202.97,193.66 216.51,186.78 C237.99,175.86 269.34,163.00 274.45,163.00 C275.17,163.00 276.32,162.32 277.00,161.50 C278.09,160.19 277.12,160.00 269.12,160.00 C241.53,160.00 205.28,170.49 165.98,189.85 C148.57,198.43 144.00,201.28 134.06,209.75 C130.59,212.70 126.91,215.00 125.64,215.00 C122.90,215.00 117.45,209.58 115.99,205.40 C114.35,200.70 116.13,197.63 123.72,192.05 C131.70,186.18 158.42,172.30 175.63,165.09 C190.23,158.98 217.83,149.71 229.23,147.09 C245.62,143.33 260.74,141.71 273.50,142.35 C286.27,142.99 291.40,144.08 302.37,148.53 L 309.23 151.31 L 322.87 148.18 C330.37,146.46 341.00,144.35 346.50,143.50 C352.00,142.66 358.75,141.53 361.50,141.00 C370.89,139.18 403.31,137.40 416.92,137.94 C422.20,138.16 408.07,140.35 384.50,142.98 C363.64,145.31 341.75,149.74 317.37,156.57 C315.27,157.16 315.30,157.28 318.62,163.66 C323.57,173.16 323.23,180.88 317.28,193.90 C309.80,210.24 269.08,240.88 226.25,262.38 C222.26,264.39 219.00,266.36 219.00,266.76 C219.00,267.45 224.79,270.79 242.45,280.29 C249.31,283.99 257.97,289.04 278.50,301.33 C289.99,308.21 317.33,326.64 329.36,335.60 C338.00,342.05 353.88,359.07 360.16,368.61 C363.94,374.37 366.31,384.12 364.37,386.00 C363.89,386.47 359.06,382.57 353.45,377.17 ZM 210.63 249.48 C250.08,231.85 293.12,202.90 301.75,188.17 C305.67,181.47 305.63,173.31 301.64,169.15 C298.68,166.05 294.96,164.50 291.50,164.93 C288.65,165.27 266.40,173.01 254.00,177.97 C248.23,180.27 235.57,185.99 225.88,190.68 L 208.26 199.19 L 207.71 211.35 C207.35,219.20 206.07,228.64 204.08,238.00 C202.39,245.98 201.01,252.61 201.00,252.75 C200.99,253.51 203.57,252.64 210.63,249.48 Z" fill="rgba(253,253,253,1)"/>
</g>
</svg>