<?xml version="1.0" standalone="no"?>
<!DOCTYPE svg PUBLIC "-//W3C//DTD SVG 20010904//EN"
 "http://www.w3.org/TR/2001/REC-SVG-20010904/DTD/svg10.dtd">
<svg version="1.0" xmlns="http://www.w3.org/2000/svg"
 width="2560.000000pt" height="1576.000000pt" viewBox="0 0 2560.000000 1576.000000"
 preserveAspectRatio="xMidYMid meet">

<g transform="translate(0.000000,1576.000000) scale(0.100000,-0.100000)"
fill="#000000" stroke="none">
<path d="M1687 15749 c-476 -39 -940 -279 -1245 -644 -254 -303 -400 -658
-432 -1050 -14 -171 -14 -12168 0 -12341 54 -660 436 -1225 1025 -1514 200
-98 399 -156 617 -179 137 -15 22159 -15 22296 0 583 63 1098 396 1397 904
140 237 221 500 245 789 14 173 14 12170 0 12341 -75 911 -784 1620 -1695
1695 -147 12 -22062 11 -22208 -1z m5697 -5214 c857 -1072 1232 -1533 1240
-1526 6 5 560 696 1231 1535 l1220 1526 1233 0 1232 0 0 -4185 0 -4185 -1235
0 -1235 0 -2 2389 -3 2390 -1223 -1530 c-673 -841 -1227 -1527 -1230 -1525 -4
2 -556 691 -1227 1530 l-1220 1525 -3 -2390 -2 -2389 -1235 0 -1235 0 0 4185
0 4185 1233 0 1233 0 1228 -1535z m12926 -620 l0 -2155 1230 -2 1229 -3 -1841
-2025 c-1012 -1114 -1844 -2026 -1848 -2028 -7 -3 -3681 4031 -3688 4050 -2 4
548 8 1222 8 l1226 0 0 2155 0 2155 1235 0 1235 0 0 -2155z"/>
</g>
</svg>
